<!DOCTYPE svg PUBLIC "-//W3C//DTD SVG 1.1//EN" "http://www.w3.org/Graphics/SVG/1.1/DTD/svg11.dtd">
<!-- Uploaded to: SVG Repo, www.svgrepo.com, Transformed by: SVG Repo Mixer Tools -->
<svg xmlns="http://www.w3.org/2000/svg" aria-label="Gmail" role="img" viewBox="-76.8 -76.8 665.60 665.60" width="64px" height="64px" fill="#000000">
<g id="SVGRepo_bgCarrier" stroke-width="0">
<rect x="-76.8" y="-76.8" width="665.60" height="665.60" rx="332.8" fill="#2ea4ff" strokewidth="0"/>
</g>
<g id="SVGRepo_tracerCarrier" stroke-linecap="round" stroke-linejoin="round"/>
<g id="SVGRepo_iconCarrier">
<rect width="512" height="512" rx="15%" fill="#2ea4ff"/>
<path d="M158 391v-142l-82-63V361q0 30 30 30" fill="#4285f4"/>
<path d="M 154 248l102 77l102-77v-98l-102 77l-102-77" fill="#ea4335"/>
<path d="M354 391v-142l82-63V361q0 30-30 30" fill="#34a853"/>
<path d="M76 188l82 63v-98l-30-23c-27-21-52 0-52 26" fill="#c5221f"/>
<path d="M436 188l-82 63v-98l30-23c27-21 52 0 52 26" fill="#fbbc04"/>
</g>
</svg>